<mxfile host="app.diagrams.net" modified="2024-01-24T09:48:35.890Z" agent="Mozilla/5.0 (Windows NT 10.0; Win64; x64) AppleWebKit/537.36 (KHTML, like Gecko) Chrome/120.0.0.0 Safari/537.36" version="22.1.18" etag="om602Lk9fDBltrb54oqp" type="github">
  <diagram name="Page-1" id="mY4Nihmnje_g2OFmJHn6">
    <mxGraphModel>
      <root>
        <mxCell id="0" />
        <mxCell id="1" parent="0" />
      </root>
    </mxGraphModel>
  </diagram>
</mxfile>
